# xmcd
#
# Track frame offsets:
#	150
#	4142
#	21702
#	23055
#	39418
#	40797
#	58801
#	78567
#	80823
#	94766
#	108264
#	109439
#	129579
#	144094
#	145657
#	167198
#	167760
#	185670
#	188779
#	205257
#	206356
#	226057
#	228090
#	247883
#
# Disc length: 3615 seconds
#
# Revision: 3
# Processed by: cddbd v1.5.2PL0 Copyright (c) Steve Scherf et al.
# Submitted via: EasyCDDAExtractor 12.0.1.1
#
DISCID=420e1d18
DTITLE=2 Live Crew - Back At Your Ass For The Nine-4
DYEAR=1900
DGENRE=Rap
TTITLE0=Intro
TTITLE1=Dem A Talk
TTITLE2=Sex..Sex
TTITLE3=Hell, Yeah
TTITLE4=OHHH!
TTITLE5=Pussy and Dick Thing
TTITLE6=You Go Girl
TTITLE7=Joke's On You
TTITLE8=2 Live Freestyle
TTITLE9=We Want Some Pussy II
TTITLE10=Show Him
TTITLE11=The Initiation
TTITLE12=Fuck Nigga
TTITLE13=Suck Good Dick
TTITLE14=Suck My Dick
TTITLE15=Fuck 'Em Intro
TTITLE16=Fuck 'Em
TTITLE17=Work It
TTITLE18=Work That Pussy
TTITLE19=Pigs Fuckin'
TTITLE20=Capt. Dick and Dolemite
TTITLE21=Drop Your Draws
TTITLE22=The Trick
TTITLE23=Mega Mix
EXTD=Rip By Hangar 18 - Guararapes - Brazil
EXTT0=
EXTT1=
EXTT2=
EXTT3=
EXTT4=
EXTT5=
EXTT6=
EXTT7=
EXTT8=
EXTT9=
EXTT10=
EXTT11=
EXTT12=
EXTT13=
EXTT14=
EXTT15=
EXTT16=
EXTT17=
EXTT18=
EXTT19=
EXTT20=
EXTT21=
EXTT22=
EXTT23=
PLAYORDER=
